<?xml version="1.0" encoding="UTF-8"?>
<svg id="ESSC _LOGO" data-name="ESSC  LOGO" xmlns="http://www.w3.org/2000/svg" viewBox="0 0 478.96 497">
  <defs>
    <style>
      .cls-1 {
        fill: #a6292e;
        fill-rule: evenodd;
      }
    </style>
  </defs>
  <path class="cls-1" d="M467.56,144.95c-2.16,0-4.14,.62-5.86,1.66l-176.53,101.88,79.86,46.11,25.44-14.69v.07c.83-.47,1.79-.76,2.81-.76,3.06,0,5.53,2.41,5.68,5.43l.11,72.86c-.17,2.98-2.63,5.38-5.67,5.38-.84,0-1.63-.24-2.34-.58L83.12,184.43c-1.84-.91-3.1-2.31-3.18-4.48l-.05-40.35c.16-3,2.63-5.39,5.68-5.39,1.11,0,2.16,.33,3.02,.88l150.93,87.05,79.86-46.11L17.13,1.59c-1.67-.99-3.6-1.59-5.69-1.59C5.14,0,.04,5.11,.04,11.41l-.04,72.44H.04v52.71l-.04-.03v92.19l.04,.04v184.34l-.04,.04,.03,72.72c.16,6.17,5.17,11.14,11.37,11.14,2.04,0,3.93-.58,5.58-1.51l176.91-102.09-79.84-46.11-26.14,15.04c-.71,.32-1.47,.49-2.29,.49-3.05,0-5.52-2.41-5.68-5.42h-.05v-72.93c.16-3.01,2.63-5.39,5.68-5.39,1.11,0,2.16,.33,3.02,.89l373.44,215.49c1.63,.91,3.5,1.47,5.5,1.47,6.3,0,11.33-3.88,11.33-10.18,0-.22,.07-257.91,.07-257.91,0,0,.04-72.38,.04-72.48,0-6.31-5.1-11.41-11.4-11.41Z"/>
</svg>