<?xml version="1.0" encoding="UTF-8"?>
<svg id="ESSC " xmlns="http://www.w3.org/2000/svg" viewBox="0 0 243.56 81.8">
  <defs>
    <style>
      .cls-1 {
        fill: #c4181f;
      }
    </style>
  </defs>
  <polygon class="cls-1" points="46.13 32.6 0 32.6 0 81.8 8.61 81.8 8.61 41.21 46.74 41.21 55.36 32.6 46.13 32.6"/>
  <polygon class="cls-1" points="196.82 33.83 196.82 81.8 205.43 81.8 205.43 24.6 196.82 33.83"/>
  <polygon class="cls-1" points="122.4 12.3 122.4 12.3 122.4 44.28 122.4 81.8 131.62 81.8 131.62 20.91 137.77 27.68 164.22 54.13 164.22 54.13 164.22 54.13 205.43 12.3 205.43 0 164.22 41.21 122.4 0 122.4 12.3"/>
  <rect class="cls-1" x="234.95" width="8.61" height="81.8"/>
  <rect class="cls-1" x="84.88" width="8.61" height="81.8"/>
  <polygon class="cls-1" points="55.36 0 0 0 0 8.61 46.74 8.61 55.36 0"/>
</svg>